{"accessors" : [{"bufferView" : 0, "byteOffset" : 0, "componentType" : 5123, "count" : 49152, "type" : "SCALAR", "max" : [40959], "min" : [0]}, {"bufferView" : 1, "byteOffset" : 0, "componentType" : 5126, "count" : 40960, "type" : "VEC3", "max" : [8.941943168640137, 0.45833298563957214, 8.941943168640137], "min" : [-8.941943168640137, -0.45833298563957214, -8.941941261291504], "name" : "POSITION"}, {"bufferView" : 1, "byteOffset" : 12, "componentType" : 5126, "count" : 40960, "type" : "VEC2", "max" : [1, -0], "min" : [0, -1], "name" : "TEXCOORD_0"}, {"bufferView" : 1, "byteOffset" : 20, "componentType" : 5126, "count" : 40960, "type" : "VEC3", "max" : [0.9999284148216248, 0.11780520528554916, 0.9999284148216248], "min" : [-0.9999284148216248, -0.11789598315954208, -0.9999284148216248], "name" : "NORMAL"}], "asset" : {"generator" : "Aspose.3D 22.3", "version" : "2.0"}, "buffers" : [{"uri" : "data:application/octet-stream;base64,", "byteLength" : 1671176}], "bufferViews" : [{"buffer" : 0, "byteOffset" : 0, "byteLength" : 98304, "target" : 34963}, {"buffer" : 0, "byteOffset" : 98308, "byteLength" : 1572864, "byteStride" : 32, "target" : 34962}], "meshes" : [{"primitives" : [{"attributes" : {"POSITION" : 1, "TEXCOORD_0" : 2, "NORMAL" : 3}, "indices" : 0, "mode" : 4}], "name" : ""}], "nodes" : [{"mesh" : 0, "name" : "Cylinder_Cylinder.001"}], "scene" : 0, "scenes" : [{"nodes" : [0]}]}