<?xml version="1.0" standalone="no"?>
<!DOCTYPE svg PUBLIC "-//W3C//DTD SVG 20010904//EN"
 "http://www.w3.org/TR/2001/REC-SVG-20010904/DTD/svg10.dtd">
<svg version="1.0" xmlns="http://www.w3.org/2000/svg"
 width="2500.000000pt" height="2500.000000pt" viewBox="0 0 2500.000000 2500.000000"
 preserveAspectRatio="xMidYMid meet">
<metadata>
Created by potrace 1.14, written by Peter Selinger 2001-2017
</metadata>
<g transform="translate(0.000000,2500.000000) scale(0.100000,-0.100000)"
fill="#000000" stroke="none">
<path d="M7085 20063 c-433 -39 -776 -158 -1049 -366 -94 -71 -535 -503 -639
-626 -172 -202 -265 -402 -351 -750 -35 -142 -47 -215 -67 -416 -13 -128 -7
-440 10 -555 6 -36 17 -130 25 -210 18 -170 81 -493 132 -670 19 -69 53 -190
75 -270 23 -80 69 -221 103 -315 35 -93 73 -204 86 -245 24 -77 62 -168 148
-350 27 -58 81 -181 121 -275 39 -93 105 -233 146 -310 42 -77 124 -239 184
-360 59 -121 143 -274 186 -340 42 -66 88 -138 102 -160 54 -90 207 -355 244
-422 l40 -73 -1235 0 c-1109 0 -1236 -2 -1250 -16 -26 -26 -19 -43 49 -113 36
-37 65 -71 65 -75 0 -5 -153 -351 -534 -1203 -91 -206 -96 -233 -44 -246 13
-4 300 -7 639 -7 608 0 617 0 643 21 14 11 26 24 26 29 0 7 207 476 215 488 1
1 252 3 556 2 305 0 568 4 584 8 24 6 37 21 63 72 71 142 173 383 170 403 -6
46 -21 47 -596 47 -540 0 -543 0 -532 20 11 20 21 20 615 20 l605 0 19 31 c10
17 40 79 67 138 l48 108 52 -71 c50 -68 51 -72 39 -101 -10 -25 -288 -654
-345 -780 -9 -22 -33 -76 -53 -120 -19 -44 -51 -117 -71 -161 -42 -95 -44
-117 -14 -138 20 -14 98 -16 643 -16 680 0 649 -3 675 60 7 16 15 30 19 30 9
0 104 -115 216 -260 49 -63 134 -169 190 -235 55 -66 129 -157 163 -202 34
-46 100 -122 145 -170 46 -49 144 -158 219 -243 166 -189 1935 -1956 2103
-2100 66 -57 158 -140 205 -185 47 -44 141 -124 210 -176 69 -53 157 -125 195
-159 39 -34 135 -112 214 -172 78 -61 193 -154 255 -207 180 -158 391 -321
546 -425 259 -172 328 -219 491 -336 311 -222 355 -252 469 -319 102 -61 356
-208 480 -279 25 -14 88 -54 141 -88 151 -99 248 -153 469 -263 113 -57 210
-106 215 -111 47 -36 548 -270 579 -270 3 0 41 -16 83 -36 172 -80 323 -143
423 -177 58 -19 170 -58 250 -87 381 -135 891 -260 1275 -310 229 -31 596 -38
770 -16 189 24 281 42 439 88 276 78 432 152 591 277 87 68 553 528 645 636
161 190 272 416 344 702 52 207 82 502 71 693 -11 195 -34 448 -50 549 -21
127 -98 474 -141 631 -73 271 -224 707 -333 963 -39 92 -85 201 -101 241 -80
202 -487 991 -661 1281 -53 88 -133 223 -179 300 -45 77 -116 190 -156 251
-41 61 -74 114 -74 118 0 3 216 6 479 6 l480 0 24 23 c15 13 99 191 212 447
104 234 226 508 271 610 l82 185 56 3 c31 2 56 0 56 -4 0 -5 -193 -444 -249
-566 -105 -228 -281 -634 -281 -648 0 -11 10 -26 22 -34 20 -14 100 -16 674
-16 730 0 665 -7 700 75 9 22 35 83 59 135 24 52 116 259 205 460 89 201 188
424 220 495 58 130 63 146 61 176 0 9 -75 85 -166 168 l-166 151 -1287 0
c-708 0 -1596 0 -1973 0 l-686 0 -114 136 c-63 75 -141 169 -174 208 -34 39
-103 123 -154 186 -51 63 -152 180 -225 260 -72 80 -179 199 -236 265 -163
187 -493 525 -1051 1080 -512 509 -694 683 -884 847 -55 47 -145 128 -200 179
-55 52 -149 134 -210 184 -60 49 -215 177 -344 285 -367 306 -606 491 -1001
775 -58 42 -157 114 -220 161 -105 78 -346 244 -390 269 -10 6 -127 83 -261
172 -134 88 -296 192 -359 230 -244 147 -509 302 -590 345 -47 25 -134 71
-195 103 -60 32 -114 61 -120 66 -34 25 -553 277 -720 349 -66 28 -129 55
-140 61 -59 27 -260 109 -268 109 -5 0 -23 6 -40 14 -18 7 -54 21 -82 31 -27
10 -63 23 -80 31 -29 12 -200 68 -420 138 -235 74 -601 156 -877 196 -215 31
-591 48 -753 33z m401 -103 c594 -28 1319 -218 2089 -547 439 -188 992 -469
1410 -716 121 -71 280 -165 352 -208 73 -44 226 -141 340 -217 115 -76 269
-178 343 -227 149 -98 320 -219 390 -275 25 -20 90 -68 145 -107 269 -190 692
-516 930 -718 72 -61 213 -178 315 -261 102 -84 228 -191 280 -239 52 -49 147
-133 210 -189 248 -217 368 -333 1010 -974 626 -625 735 -737 941 -972 45 -52
140 -158 209 -235 70 -77 180 -205 245 -285 66 -80 172 -208 237 -284 65 -77
118 -144 118 -148 0 -4 -226 -8 -503 -8 l-503 0 -80 83 c-44 45 -135 150 -201
232 -169 209 -1891 1929 -2088 2086 -71 57 -179 151 -240 209 -60 58 -175 158
-255 223 -80 65 -172 141 -205 168 -33 28 -107 87 -165 132 -143 111 -139 108
-174 141 -17 15 -47 40 -66 55 -19 14 -44 34 -55 45 -11 10 -36 29 -55 42 -81
55 -132 92 -202 146 -90 70 -300 227 -392 293 -235 171 -906 620 -1081 725
-77 46 -174 103 -215 128 -161 97 -429 250 -515 294 -49 26 -148 79 -220 118
-354 194 -941 453 -1425 628 -143 52 -529 170 -640 196 -291 68 -633 122 -849
135 -283 17 -727 -16 -891 -65 -73 -21 -103 -38 -151 -81 -87 -79 -125 -161
-164 -361 -35 -172 -44 -277 -51 -542 -5 -203 -3 -245 20 -430 14 -113 33
-241 41 -285 8 -44 28 -157 44 -251 17 -94 44 -213 60 -265 17 -52 46 -155 66
-229 20 -74 59 -193 87 -265 28 -71 75 -204 105 -295 31 -91 88 -239 128 -330
40 -91 92 -210 115 -265 23 -55 102 -217 174 -360 72 -143 140 -280 151 -305
26 -61 119 -230 172 -313 24 -38 106 -180 182 -316 183 -328 236 -417 319
-536 139 -199 393 -577 389 -581 -2 -2 -230 -4 -507 -4 -403 -1 -506 1 -515
12 -11 11 -58 92 -260 443 -28 50 -91 153 -140 230 -48 77 -127 219 -175 315
-48 96 -128 254 -178 350 -50 96 -136 276 -190 400 -55 124 -127 286 -161 360
-34 74 -74 173 -88 220 -15 47 -53 157 -85 245 -102 277 -193 610 -274 1005
-27 132 -54 388 -66 628 -10 207 -10 251 6 400 22 203 42 306 96 480 67 218
139 367 247 513 68 91 578 597 681 673 209 158 476 265 771 312 86 13 209 24
381 32 14 1 116 -3 226 -8z m-366 -651 c154 -19 394 -62 606 -108 283 -61 850
-260 1319 -463 489 -212 1059 -513 1650 -873 196 -119 252 -154 322 -203 15
-11 73 -49 128 -84 179 -116 209 -136 310 -207 55 -39 145 -103 200 -141 141
-99 270 -193 340 -248 33 -26 103 -77 155 -114 180 -129 270 -197 387 -295 65
-54 170 -138 233 -187 63 -49 169 -135 235 -191 66 -55 156 -130 200 -165 44
-35 125 -107 180 -160 55 -53 170 -153 255 -223 126 -102 325 -296 1056 -1029
683 -684 926 -935 1005 -1033 57 -71 123 -151 148 -178 24 -26 42 -50 38 -53
-3 -3 -25 -5 -49 -3 -69 3 -2850 4 -4495 1 -1355 -2 -1503 -3 -1517 -18 -26
-26 -19 -43 49 -113 36 -37 65 -70 65 -74 0 -3 -73 -169 -161 -369 -89 -200
-162 -376 -163 -392 -2 -58 -17 -57 737 -54 378 2 687 -1 687 -5 0 -5 -24 -62
-52 -126 l-53 -118 -49 1 c-27 1 -51 6 -53 12 -2 6 8 36 22 68 27 62 31 96 13
114 -9 9 -168 12 -653 12 -599 0 -643 -1 -657 -17 -18 -22 -238 -515 -238
-534 0 -5 9 -18 20 -29 20 -20 33 -20 1163 -20 l1143 0 80 41 c43 22 179 92
300 155 l222 115 27 62 c15 34 47 105 70 157 187 415 198 443 189 469 l-9 26
-708 3 c-389 1 -707 4 -707 7 0 2 22 55 49 117 l49 113 56 3 c31 2 56 1 56 -2
0 -3 -12 -31 -26 -63 -29 -65 -33 -96 -14 -118 11 -13 96 -15 656 -15 l644 0
23 48 c13 26 66 140 117 254 l92 207 63 -56 63 -56 -23 -51 c-13 -28 -41 -91
-64 -140 -42 -91 -51 -138 -28 -153 6 -4 186 -10 399 -13 l387 -5 -110 -245
c-60 -135 -115 -258 -123 -275 -7 -16 -27 -61 -44 -100 -17 -38 -65 -146 -107
-239 -41 -93 -75 -180 -75 -192 0 -54 -1 -54 576 -54 492 0 533 1 552 18 12 9
40 60 62 112 23 52 50 113 60 135 73 161 341 768 355 803 l17 42 413 0 c380 0
413 1 427 18 13 14 92 187 190 411 l19 45 59 -59 c33 -33 60 -63 60 -67 0 -4
-108 -250 -240 -547 -132 -297 -240 -550 -240 -563 0 -17 42 -65 148 -169 81
-81 158 -154 172 -163 22 -14 93 -16 731 -16 l707 0 33 -52 c18 -29 54 -80 79
-113 44 -57 167 -241 372 -555 132 -203 274 -435 388 -635 54 -93 107 -186
119 -205 23 -40 38 -67 108 -200 28 -52 76 -142 107 -200 71 -130 199 -390
261 -530 26 -58 60 -133 76 -168 16 -34 29 -65 29 -68 0 -3 9 -24 19 -47 20
-44 100 -244 152 -382 17 -44 35 -89 40 -100 15 -34 76 -214 114 -340 20 -66
43 -138 50 -160 53 -151 145 -599 178 -865 17 -139 21 -227 21 -430 0 -230 -3
-270 -27 -410 -15 -85 -31 -170 -36 -188 -28 -94 -106 -177 -200 -213 -119
-45 -349 -79 -617 -91 -249 -12 -253 -12 -475 16 -199 25 -365 51 -635 101
-45 8 -133 31 -195 51 -63 19 -158 47 -213 60 -54 14 -164 50 -245 80 -165 63
-280 104 -393 140 -42 13 -145 56 -230 95 -177 81 -168 77 -275 119 -46 18
-118 50 -160 72 -187 96 -397 201 -513 255 -69 33 -183 96 -255 140 -137 84
-239 143 -370 213 -44 24 -91 52 -104 62 -13 10 -27 18 -31 18 -8 0 -199 113
-300 177 -41 26 -145 98 -231 159 -85 62 -180 127 -210 145 -29 18 -90 59
-135 91 -44 32 -84 58 -89 58 -4 0 -51 31 -104 69 -53 38 -114 79 -136 91 -53
30 -245 175 -352 267 -49 42 -160 131 -248 199 -153 118 -276 214 -657 516
-95 75 -200 164 -233 198 -53 55 -131 120 -355 297 -36 29 -473 460 -971 960
-803 805 -919 925 -1021 1058 -64 83 -140 174 -170 203 l-54 52 32 68 c18 37
101 222 185 412 83 190 198 450 255 579 100 224 113 263 96 287 -4 6 -80 77
-169 157 l-163 147 -759 0 -759 0 -32 58 c-18 31 -52 82 -75 112 -23 30 -49
69 -58 86 -9 17 -67 103 -130 190 -171 240 -218 311 -273 409 -76 135 -95 169
-104 180 -4 6 -26 44 -47 85 -89 166 -120 221 -210 367 -52 84 -136 242 -189
350 -52 109 -103 214 -115 233 -50 88 -154 302 -198 408 -26 64 -78 186 -115
270 -37 85 -89 217 -115 295 -27 78 -74 210 -105 292 -31 83 -72 207 -90 275
-19 69 -48 172 -66 230 -17 58 -40 161 -50 230 -11 69 -29 168 -40 220 -11 52
-32 190 -46 305 -26 208 -27 213 -16 500 15 406 56 613 144 725 28 35 106 88
147 100 54 15 283 49 396 58 163 14 481 5 665 -19z m-191 -6133 l24 -25 -21
-48 c-11 -26 -24 -49 -29 -50 -4 -1 -28 27 -52 64 -42 64 -43 67 -31 104 l13
38 36 -28 c20 -16 47 -41 60 -55z m8771 74 c0 -6 -21 -57 -46 -113 -25 -56
-60 -132 -77 -169 l-30 -68 -398 0 c-219 0 -408 -4 -421 -9 -25 -9 -21 -1
-367 -781 l-140 -315 -475 -3 -476 -2 14 32 c7 18 111 252 230 519 119 268
216 495 216 506 0 46 -10 48 -416 53 l-383 5 54 120 c30 66 55 131 55 144 0
14 -14 36 -37 57 l-37 34 1367 0 c938 0 1367 -3 1367 -10z m2675 -175 l-77
-175 -381 2 -381 3 -128 170 -128 170 583 5 c320 3 584 4 586 3 2 -2 -31 -82
-74 -178z m252 133 c29 -29 53 -56 53 -60 0 -11 -490 -1111 -500 -1121 -12
-13 -95 124 -97 161 -1 39 -16 59 -46 65 -21 3 -21 4 3 14 14 6 31 17 37 24
19 24 193 425 193 446 0 42 -10 43 -331 43 -195 0 -310 4 -314 10 -4 7 118 10
358 10 334 0 365 1 379 18 8 9 57 113 109 229 52 117 96 213 99 213 2 0 28
-23 57 -52z m-11963 3 l25 -39 -61 -136 -62 -136 -587 0 c-368 0 -598 -4 -614
-10 -19 -7 -35 -30 -61 -84 -36 -79 -42 -114 -22 -134 9 -9 148 -12 565 -12
311 0 553 -4 553 -9 0 -5 -31 -78 -68 -162 l-69 -154 -580 -3 c-462 -2 -583
-5 -591 -15 -6 -7 -62 -128 -125 -268 l-113 -254 -568 -3 c-453 -2 -567 0
-563 10 6 17 281 635 306 690 115 250 291 656 291 672 0 11 -14 35 -32 53
l-32 33 1192 0 1192 0 24 -39z m1186 -43 c29 -46 91 -133 137 -194 l83 -111
-85 -191 c-47 -105 -85 -196 -85 -201 0 -6 9 -20 20 -31 18 -18 33 -20 138
-20 84 0 123 4 137 14 11 8 34 46 50 85 17 39 33 71 36 71 3 0 106 -127 228
-282 122 -156 263 -334 313 -396 50 -62 88 -115 86 -118 -3 -2 -226 -3 -496
-2 l-490 3 69 155 c38 85 69 163 69 172 0 40 -26 48 -151 48 -67 0 -129 -5
-140 -11 -18 -9 -57 -82 -90 -167 -9 -22 -15 -17 -90 80 -77 97 -128 168 -254
353 -30 44 -73 107 -97 140 -24 33 -70 100 -103 150 -34 49 -82 120 -108 156
-26 37 -47 73 -47 82 0 8 18 55 40 105 22 49 40 98 40 108 0 10 -14 33 -32 51
l-32 33 400 0 400 0 54 -82z m1611 -41 l136 -124 -42 -94 c-23 -52 -109 -245
-190 -429 -81 -184 -183 -414 -225 -510 -43 -96 -82 -175 -88 -175 -5 0 -52
54 -103 120 -51 66 -109 138 -128 160 -32 35 -411 521 -470 601 l-23 32 61
136 c33 75 61 147 61 161 0 43 -33 55 -153 55 -60 0 -117 -5 -128 -10 -10 -6
-27 -26 -37 -45 l-17 -35 -35 46 c-19 24 -40 50 -45 57 -14 16 -66 92 -94 140
l-23 37 704 0 704 0 135 -123z m3229 116 c0 -5 -39 -94 -87 -200 l-87 -192
-563 0 c-310 0 -563 2 -563 5 0 3 14 36 30 74 53 121 44 130 -125 130 -102 0
-126 -3 -143 -17 -19 -16 -142 -279 -163 -346 -7 -24 -4 -33 16 -53 l24 -24
691 0 c379 0 690 -3 690 -6 0 -14 -232 -530 -243 -540 -7 -6 -115 -65 -242
-130 -126 -64 -243 -126 -260 -136 -29 -17 -84 -18 -1122 -18 -601 0 -1093 3
-1092 8 0 4 40 95 88 202 l87 195 567 3 c312 1 567 1 567 -2 0 -2 -13 -33 -30
-69 -32 -71 -37 -106 -18 -125 8 -8 55 -12 143 -12 113 0 134 2 147 18 21 24
168 356 168 379 0 44 9 43 -727 43 -460 0 -703 3 -703 10 0 5 70 166 155 357
85 191 155 356 155 367 0 11 -14 35 -32 53 l-32 33 1352 0 c744 0 1352 -3
1352 -7z m4532 -90 c125 -162 188 -247 183 -251 -2 -2 -66 -3 -143 -3 -76 1
-151 -3 -166 -9 -19 -7 -35 -28 -56 -72 -32 -68 -37 -97 -18 -116 9 -9 82 -12
269 -12 142 0 265 -3 274 -6 13 -5 97 -115 234 -305 13 -19 4 -19 -472 -19
l-485 0 -46 64 c-25 36 -54 72 -63 82 -10 9 -25 27 -33 39 -15 23 -281 352
-470 583 l-101 122 509 0 509 0 75 -97z m4013 -23 c72 -66 129 -125 128 -132
-2 -7 -122 -281 -268 -608 l-264 -595 -590 -3 -589 -2 180 402 c98 222 219
493 269 604 49 110 89 208 89 216 0 40 -26 48 -155 48 -102 0 -126 -3 -143
-17 -12 -10 -51 -85 -87 -168 -37 -82 -75 -168 -85 -190 -10 -22 -82 -184
-160 -360 -152 -343 -162 -364 -208 -467 l-31 -68 -498 0 -499 0 -40 61 c-21
34 -38 67 -36 74 1 7 17 44 34 82 179 394 508 1142 508 1157 0 11 -14 35 -32
53 l-32 33 1190 0 1189 -1 130 -119z m-5083 -68 c177 -214 524 -645 581 -720
32 -42 55 -82 52 -90 -24 -63 -9 -91 54 -99 38 -5 48 -12 75 -51 17 -25 57
-79 89 -121 58 -76 127 -177 127 -186 0 -3 -294 -5 -652 -5 l-653 0 -127 127
c-71 70 -128 133 -128 139 0 6 108 254 240 550 132 296 240 548 240 558 0 24
-5 29 102 -102z m-7822 -106 c0 -2 -17 -40 -37 -84 l-38 -81 -36 42 -36 42 19
43 19 42 54 0 c30 0 55 -2 55 -4z m-1294 -273 c41 -62 89 -132 107 -155 18
-24 50 -72 71 -108 22 -36 61 -92 86 -125 26 -33 57 -77 69 -98 13 -21 70 -97
128 -169 134 -168 128 -155 109 -200 l-16 -38 -565 0 -564 0 18 43 c10 23 88
200 173 392 86 193 182 410 214 483 l58 133 18 -23 c11 -13 53 -74 94 -135z
m10454 107 c0 -6 -65 -10 -175 -10 -110 0 -175 4 -175 10 0 6 65 10 175 10
110 0 175 -4 175 -10z m-9313 -56 c18 -20 33 -40 33 -44 0 -5 -16 -45 -36 -89
l-37 -81 -55 0 c-45 0 -53 3 -48 15 22 59 101 235 105 235 2 0 20 -16 38 -36z
m9963 -56 c0 -6 -30 -80 -67 -164 -67 -151 -68 -154 -100 -154 -27 0 -39 9
-85 67 -63 81 -178 245 -178 256 0 4 97 7 215 7 157 0 215 -3 215 -12z m-487
-425 c-134 -2 -352 -2 -485 0 -134 1 -25 2 242 2 267 0 376 -1 243 -2z m307
-107 c0 -3 -66 -152 -131 -293 l-28 -63 -269 0 -269 0 -72 103 c-40 56 -97
133 -127 172 -30 38 -54 73 -54 77 0 5 214 8 475 8 261 0 475 -2 475 -4z
m-10030 -82 c0 -3 -25 -63 -56 -135 l-57 -129 -36 42 c-40 47 -40 45 -5 125
15 32 30 68 35 81 7 19 16 22 64 22 30 0 55 -3 55 -6z m10138 -66 c56 -77 64
-94 52 -115 -5 -10 -21 -44 -34 -76 -42 -97 -25 -114 124 -120 l65 -2 68 -100
c64 -94 105 -162 378 -621 224 -375 565 -1049 719 -1418 136 -327 221 -558
299 -809 366 -1176 337 -2088 -84 -2652 -66 -90 -575 -602 -677 -683 -233
-183 -527 -285 -1023 -352 -174 -24 -690 8 -960 60 -171 33 -336 69 -430 94
-215 57 -387 107 -480 140 -341 118 -489 173 -597 222 -68 30 -231 102 -364
159 -133 57 -301 136 -375 176 -74 40 -222 116 -331 170 -181 90 -280 147
-478 273 -41 26 -158 95 -260 153 -311 178 -441 261 -763 491 -56 40 -128 89
-160 110 -32 20 -93 62 -135 93 -42 30 -95 66 -117 79 -34 20 -180 125 -195
140 -3 3 -17 11 -31 18 -37 19 -276 205 -339 263 -74 69 -180 157 -305 254
-77 60 -185 147 -240 195 -55 47 -149 124 -210 171 -60 46 -148 120 -195 164
-47 45 -139 128 -205 185 -169 146 -1909 1883 -2073 2070 -74 85 -170 191
-211 235 -42 44 -116 132 -165 195 -49 63 -135 169 -190 235 -56 66 -115 138
-131 159 -17 22 -47 61 -67 88 l-38 48 543 0 543 0 90 -92 c50 -51 137 -154
194 -228 88 -115 236 -269 1024 -1058 825 -828 937 -936 1076 -1044 85 -66
194 -159 242 -206 87 -86 174 -156 695 -564 153 -120 283 -221 288 -226 6 -4
26 -19 45 -32 19 -14 82 -65 141 -115 141 -119 353 -274 584 -425 178 -117
240 -158 377 -253 352 -242 429 -291 763 -475 110 -61 258 -147 330 -192 71
-44 183 -107 250 -138 66 -31 224 -109 351 -174 126 -64 295 -144 375 -176 79
-33 200 -86 269 -117 233 -105 1016 -367 1230 -412 142 -29 473 -84 617 -103
227 -29 354 -33 598 -21 183 9 249 17 392 46 250 50 318 81 394 177 52 66 76
138 104 304 53 316 57 566 15 909 -66 544 -192 1012 -445 1650 -120 302 -194
470 -332 755 -139 287 -392 755 -538 995 -23 39 -86 144 -140 234 -105 178
-512 797 -597 908 l-51 68 256 5 c240 5 258 6 275 25 11 11 50 91 88 177 38
87 70 158 71 158 1 0 20 -24 41 -52z"/>
</g>
</svg>
