<?xml version="1.0" standalone="no"?>
<!DOCTYPE svg PUBLIC "-//W3C//DTD SVG 20010904//EN"
 "http://www.w3.org/TR/2001/REC-SVG-20010904/DTD/svg10.dtd">
<svg version="1.0" xmlns="http://www.w3.org/2000/svg"
 width="1600.000000pt" height="1600.000000pt" viewBox="0 0 1600.000000 1600.000000"
 preserveAspectRatio="xMidYMid meet">
<metadata>
Created by potrace 1.14, written by Peter Selinger 2001-2017
</metadata>
<g transform="translate(0.000000,1600.000000) scale(0.100000,-0.100000)"
fill="#000000" stroke="none">
<path d="M0 8000 l0 -8000 8000 0 8000 0 0 8000 0 8000 -8000 0 -8000 0 0
-8000z m3650 6559 c251 -15 670 -90 905 -160 365 -109 671 -218 905 -321 74
-33 155 -68 180 -78 85 -34 445 -213 670 -333 527 -282 1286 -762 1680 -1062
30 -23 127 -95 215 -159 169 -123 307 -226 340 -254 11 -10 49 -40 85 -67 66
-51 267 -217 375 -310 33 -29 110 -91 170 -139 92 -73 237 -201 331 -292 12
-11 53 -47 90 -79 290 -244 1426 -1381 1704 -1704 30 -36 60 -69 66 -75 60
-62 232 -257 279 -316 103 -130 387 -465 400 -473 8 -4 782 -7 1720 -7 l1707
0 102 -93 c55 -50 118 -107 139 -126 20 -19 40 -44 43 -55 3 -13 -28 -94 -82
-216 -47 -107 -103 -233 -124 -280 -187 -427 -285 -638 -302 -652 -19 -17 -61
-18 -579 -18 -554 0 -559 0 -580 21 -11 11 -19 28 -16 37 3 10 51 118 107 242
56 124 114 254 130 290 15 36 71 162 124 280 53 118 96 220 96 228 0 9 -13 12
-47 10 l-46 -3 -119 -265 c-65 -146 -139 -312 -165 -370 -166 -375 -195 -437
-214 -452 -19 -17 -56 -18 -435 -18 -228 0 -414 -2 -414 -4 0 -3 31 -51 68
-108 37 -57 101 -159 141 -228 41 -69 110 -186 155 -260 45 -74 108 -187 140
-250 33 -63 81 -154 107 -202 421 -760 762 -1730 833 -2368 47 -424 42 -610
-28 -916 -48 -213 -148 -443 -246 -568 -87 -111 -532 -560 -615 -621 -22 -17
-42 -32 -45 -35 -8 -8 -89 -60 -94 -60 -2 0 -31 -15 -63 -33 -140 -80 -431
-158 -731 -198 -221 -29 -623 6 -1037 91 -283 57 -879 247 -1140 363 -44 19
-165 72 -270 117 -104 44 -235 104 -290 132 -457 233 -586 302 -695 371 -69
44 -154 97 -190 117 -407 231 -515 299 -775 488 -55 40 -200 139 -405 277
-211 141 -399 286 -581 447 -35 31 -118 97 -184 148 -66 50 -138 108 -160 129
-43 40 -214 176 -255 203 -14 9 -59 49 -101 89 -41 41 -122 114 -180 163 -148
127 -1697 1674 -1838 1836 -65 74 -146 164 -181 200 -34 36 -107 122 -161 192
-55 70 -110 139 -123 153 -13 14 -39 45 -58 67 -18 23 -45 56 -59 73 -14 16
-48 60 -75 96 -64 85 -145 179 -154 179 -4 0 -13 -14 -20 -31 -7 -17 -24 -35
-37 -40 -14 -5 -256 -9 -551 -9 -461 0 -530 2 -550 16 -12 8 -22 20 -22 27 0
12 95 231 321 742 71 159 129 293 129 297 0 4 -20 35 -44 68 l-45 61 -20 -45
c-11 -25 -32 -74 -47 -108 -15 -35 -33 -69 -39 -76 -9 -10 -120 -13 -530 -12
-508 0 -545 -2 -545 -31 0 -5 205 -9 463 -10 254 -1 473 -4 487 -8 38 -10 36
-41 -11 -149 -23 -53 -57 -133 -76 -177 -55 -128 9 -115 -565 -115 l-499 0
-39 -82 c-62 -135 -91 -199 -127 -283 -18 -44 -43 -88 -54 -97 -20 -17 -61
-18 -558 -18 -654 0 -613 -11 -545 144 20 44 44 99 54 121 16 34 230 514 293
655 47 106 58 131 106 239 l52 114 -55 49 c-30 27 -58 58 -61 69 -17 51 -64
49 1086 49 849 0 1069 3 1069 13 -1 23 -181 338 -311 543 -44 69 -127 219
-183 333 -57 113 -126 248 -155 300 -28 52 -81 165 -117 250 -36 86 -92 212
-124 281 -74 156 -84 181 -125 306 -19 56 -52 148 -73 205 -21 57 -54 156 -72
219 -18 63 -48 167 -66 230 -18 63 -38 140 -44 170 -6 30 -22 105 -35 165 -13
61 -31 173 -40 250 -8 77 -20 169 -25 205 -37 238 -15 603 51 865 57 224 150
434 251 570 60 80 367 397 508 523 214 192 443 303 755 366 228 45 360 53 635
35z"/>
<path d="M3255 14474 c-184 -15 -403 -67 -550 -130 -211 -90 -288 -149 -595
-454 -306 -304 -378 -400 -455 -614 -69 -192 -99 -316 -121 -511 -38 -339 19
-890 134 -1305 67 -240 114 -391 152 -490 22 -58 54 -150 71 -204 17 -55 56
-152 86 -216 30 -63 90 -198 134 -299 44 -101 105 -233 137 -294 31 -60 109
-211 172 -336 64 -124 142 -266 174 -316 33 -49 118 -191 189 -315 71 -124
137 -233 146 -243 16 -16 47 -18 451 -17 238 0 436 2 438 5 5 4 -210 326 -333
500 -76 108 -133 205 -325 550 -42 77 -104 183 -136 235 -72 115 -357 686
-450 900 -113 262 -124 290 -179 450 -29 85 -71 203 -93 261 -23 58 -50 144
-62 190 -12 46 -37 135 -56 198 -19 62 -43 168 -54 235 -11 68 -26 152 -34
187 -8 35 -26 159 -41 276 -26 206 -26 220 -16 455 14 321 51 520 118 636 26
44 86 98 138 125 154 78 713 105 1075 51 331 -48 522 -92 855 -197 403 -128
1050 -402 1402 -595 59 -32 151 -82 203 -109 126 -67 177 -95 290 -161 271
-159 509 -304 624 -381 70 -47 159 -106 197 -131 38 -25 110 -74 161 -109 51
-36 122 -84 157 -108 35 -24 104 -74 154 -111 175 -129 267 -197 334 -247 36
-27 101 -75 143 -106 65 -47 158 -121 265 -210 11 -9 70 -56 130 -105 61 -48
139 -112 175 -142 88 -74 99 -82 148 -121 69 -54 89 -72 155 -139 34 -35 91
-87 127 -115 36 -28 67 -54 70 -57 3 -3 37 -30 75 -59 39 -30 425 -408 858
-840 638 -636 811 -814 904 -931 64 -80 146 -175 182 -212 l65 -68 438 0 c375
0 438 2 438 14 0 8 -4 17 -9 21 -6 3 -53 57 -105 119 -53 63 -102 120 -109
128 -7 7 -48 58 -92 113 -44 55 -123 148 -175 206 -121 134 -215 239 -320 359
-111 126 -1285 1300 -1420 1420 -161 143 -267 238 -348 312 -40 37 -119 105
-175 150 -98 79 -277 227 -287 238 -11 12 -248 208 -300 249 -30 23 -106 81
-169 129 -106 81 -145 109 -321 239 -36 26 -99 72 -140 103 -355 266 -1079
734 -1450 938 -259 143 -622 329 -835 427 -207 96 -602 255 -760 307 -408 133
-736 212 -1045 254 -104 13 -509 26 -605 18z"/>
<path d="M2655 13920 c-188 -23 -295 -48 -344 -79 -83 -54 -110 -105 -152
-296 -22 -103 -45 -511 -36 -660 7 -123 33 -327 51 -405 9 -36 22 -112 31
-170 17 -115 53 -266 83 -351 11 -29 27 -87 37 -127 9 -40 37 -126 61 -190 25
-64 69 -187 98 -272 30 -85 78 -207 106 -270 29 -63 60 -135 70 -160 9 -25 27
-67 38 -95 40 -99 369 -742 422 -825 52 -82 99 -165 183 -320 22 -41 46 -82
53 -91 8 -8 14 -18 14 -22 0 -21 144 -250 246 -393 105 -146 304 -445 304
-455 0 -5 280 -9 664 -9 l664 0 139 -127 c76 -69 142 -136 147 -147 6 -17 -38
-127 -208 -511 -119 -270 -233 -525 -253 -567 l-36 -77 73 -78 c40 -43 90
-100 111 -128 21 -27 56 -75 79 -105 65 -86 1584 -1603 1680 -1678 47 -36 87
-69 90 -72 3 -3 23 -19 45 -35 22 -16 83 -70 135 -120 52 -50 133 -120 180
-155 47 -35 87 -66 90 -69 3 -4 39 -33 80 -66 41 -33 77 -62 80 -66 3 -3 55
-43 115 -89 61 -46 151 -116 200 -155 50 -39 115 -89 145 -112 31 -22 94 -74
141 -114 87 -75 217 -172 344 -255 84 -56 489 -330 667 -452 124 -84 265 -170
398 -241 36 -19 67 -37 70 -40 3 -3 43 -26 90 -50 47 -25 135 -76 195 -114 61
-39 160 -93 220 -122 136 -64 243 -118 360 -179 50 -26 158 -76 240 -111 83
-35 195 -84 250 -110 55 -26 136 -58 180 -72 44 -14 169 -59 278 -99 109 -41
221 -79 250 -85 29 -6 117 -31 197 -54 159 -48 173 -51 435 -94 312 -52 357
-56 616 -55 265 2 393 15 566 59 169 43 226 114 264 330 27 155 37 509 19 681
-24 237 -102 647 -155 814 -101 319 -141 435 -218 630 -211 535 -386 891 -747
1520 -149 261 -494 795 -676 1048 l-59 82 -608 0 c-434 0 -615 3 -630 11 -42
22 -287 272 -287 294 0 11 17 58 38 105 21 47 116 260 212 474 l173 389 -52
48 c-28 27 -54 49 -56 49 -6 0 -56 -107 -122 -260 -25 -58 -52 -113 -61 -122
-14 -17 -44 -18 -367 -18 -270 0 -355 -3 -362 -12 -6 -7 -101 -218 -212 -468
-111 -250 -206 -462 -211 -470 -8 -13 -73 -15 -467 -18 -252 -1 -468 0 -480 3
-12 3 -27 14 -33 25 -11 21 -5 39 85 240 19 41 61 136 93 210 33 74 92 205
130 290 38 85 73 165 76 178 l7 22 -333 0 c-346 0 -358 1 -358 41 0 10 16 53
36 96 20 43 44 99 54 125 l19 46 -50 46 c-27 25 -52 46 -55 46 -5 0 -56 -107
-136 -290 -28 -63 -58 -123 -66 -132 -14 -17 -54 -18 -567 -18 -415 0 -554 3
-563 12 -18 18 -14 47 13 106 28 60 24 66 -41 60 -37 -3 -39 -5 -69 -78 -17
-41 -36 -85 -43 -97 -7 -12 -12 -24 -12 -27 0 -3 270 -6 601 -6 395 0 607 -4
620 -10 10 -6 19 -21 19 -33 0 -18 -70 -183 -170 -402 -13 -27 -35 -79 -51
-115 l-27 -65 -259 -135 -258 -135 -970 -3 c-533 -1 -985 0 -1002 3 -18 3 -37
15 -43 25 -11 20 -3 43 75 215 13 28 44 97 69 155 26 58 54 111 63 117 13 10
137 13 547 12 292 -1 542 -4 556 -8 35 -10 37 -49 6 -116 -13 -30 -22 -56 -18
-59 4 -2 27 -3 51 -2 l44 1 47 105 48 105 -608 5 c-620 5 -640 6 -640 42 0 5
66 158 147 339 l146 330 -57 58 c-44 44 -57 64 -54 82 l3 24 1305 5 c2632 10
3861 10 3878 1 22 -11 82 -2 82 13 0 6 -12 23 -28 36 -15 14 -80 90 -144 170
-159 198 -1618 1655 -1808 1806 -69 54 -156 131 -195 169 -38 39 -139 127
-223 195 -85 69 -211 171 -280 228 -70 56 -136 110 -147 119 -75 63 -231 186
-272 214 -26 18 -57 41 -68 51 -10 10 -53 42 -95 70 -41 28 -95 68 -120 88
-25 20 -82 63 -128 96 -46 32 -122 87 -170 121 -168 120 -669 451 -832 550
-685 415 -1230 689 -1820 913 -91 34 -178 68 -195 75 -27 11 -151 51 -405 129
-107 33 -366 87 -580 121 -139 22 -206 27 -420 30 -140 2 -286 0 -325 -5z"/>
<path d="M9558 8652 l-1176 -2 29 -29 c16 -16 29 -36 29 -45 0 -8 -20 -58 -45
-112 -25 -53 -45 -103 -45 -110 0 -12 56 -14 328 -14 306 0 330 -1 345 -18 21
-23 21 -24 -2 -75 -10 -23 -81 -181 -156 -352 -76 -170 -149 -335 -162 -365
-36 -78 -63 -141 -63 -146 0 -2 186 -4 413 -4 l412 0 34 78 c19 42 57 127 83
187 27 61 58 130 68 155 48 116 229 511 240 525 11 13 62 15 369 15 l357 0 67
152 c37 83 64 154 60 157 -5 3 -538 5 -1185 3z"/>
<path d="M13231 8647 c-6 -6 -11 -15 -11 -19 0 -8 -37 -92 -130 -294 -16 -34
-34 -66 -42 -70 -7 -5 -150 -10 -317 -11 -167 -1 -306 -5 -309 -8 -3 -3 116
-5 264 -5 273 0 294 -3 294 -37 0 -7 -37 -97 -82 -200 -64 -144 -89 -190 -109
-202 -27 -15 -27 -15 -6 -26 14 -6 24 -24 28 -45 5 -34 73 -150 87 -150 4 0
36 66 72 148 35 81 78 179 96 217 18 39 69 153 114 255 45 102 100 225 122
274 l39 89 -49 47 c-36 34 -54 44 -61 37z"/>
<path d="M820 8642 c0 -5 11 -19 25 -32 14 -13 25 -29 25 -36 0 -6 -86 -205
-191 -440 -294 -657 -320 -718 -326 -736 -5 -17 23 -18 491 -18 306 0 496 4
496 9 0 17 183 425 198 444 14 16 51 17 517 17 l502 0 43 98 c23 53 50 115 60
137 10 22 17 41 15 43 -1 1 -214 3 -472 2 -447 0 -471 1 -494 19 l-23 19 29
71 c15 39 35 77 43 84 11 9 144 13 539 17 l524 5 51 112 c52 116 56 144 22
177 -14 14 -123 16 -1045 16 -566 0 -1029 -4 -1029 -8z"/>
<path d="M3038 8625 c-13 -29 -6 -48 42 -114 l33 -45 18 35 c10 19 18 41 19
49 0 15 -78 100 -92 100 -5 0 -14 -11 -20 -25z"/>
<path d="M3200 8641 c0 -5 7 -14 16 -21 37 -31 36 -47 -6 -141 l-40 -91 38
-57 c21 -31 65 -94 97 -141 33 -47 88 -127 123 -179 54 -80 79 -115 125 -176
4 -5 33 -46 65 -91 107 -152 147 -203 155 -201 4 1 22 34 40 72 17 39 39 75
47 82 20 17 222 17 238 1 23 -23 16 -47 -74 -245 -13 -28 -24 -57 -24 -62 0
-8 133 -11 431 -11 l430 0 -48 63 c-26 34 -97 123 -158 198 -60 75 -150 189
-200 254 -49 64 -102 133 -117 152 l-28 35 -15 -28 c-9 -16 -26 -49 -38 -74
l-22 -45 -118 -3 c-163 -4 -162 -7 -68 207 39 89 71 166 71 170 0 4 -30 48
-67 98 -38 49 -90 124 -117 166 l-50 77 -343 0 c-190 0 -343 -4 -343 -9z"/>
<path d="M4000 8640 c0 -13 39 -73 109 -169 l54 -74 15 29 c8 16 21 35 30 42
20 15 195 17 223 2 29 -16 24 -49 -31 -174 -27 -63 -50 -118 -50 -121 0 -6
118 -165 130 -175 7 -6 79 -99 175 -225 38 -49 71 -92 75 -95 9 -8 211 -262
224 -282 17 -28 31 -22 51 25 22 51 51 118 230 522 75 171 155 350 177 399 32
73 37 91 26 101 -7 7 -61 56 -120 109 l-106 96 -606 0 c-406 0 -606 -3 -606
-10z"/>
<path d="M5813 8622 c43 -44 53 -11 -152 -471 -50 -113 -89 -206 -87 -208 2
-2 269 -3 594 -3 366 0 600 -3 616 -10 18 -6 26 -17 26 -33 0 -36 -130 -324
-154 -339 -20 -14 -211 -9 -231 5 -21 16 -17 53 15 119 11 23 20 43 20 45 0 2
-222 3 -494 3 l-494 0 -21 -45 c-12 -25 -21 -47 -21 -50 0 -3 -13 -33 -29 -68
-36 -77 -81 -178 -81 -183 0 -2 426 -4 946 -4 l947 0 226 116 c124 64 231 120
237 125 6 5 37 67 69 137 32 70 77 170 101 223 24 53 44 101 46 108 2 8 -145
12 -587 12 -324 0 -601 4 -615 8 -42 12 -37 48 30 198 33 75 68 145 77 155 14
15 33 18 130 18 109 0 114 -1 124 -23 9 -20 6 -34 -20 -84 -16 -33 -27 -63
-24 -67 4 -3 223 -6 488 -6 374 0 485 3 492 13 10 13 153 324 153 332 0 3
-530 5 -1177 5 l-1177 0 27 -28z"/>
<path d="M11126 8638 c4 -7 16 -21 25 -33 25 -28 120 -146 256 -314 64 -80
124 -154 134 -165 10 -12 27 -32 38 -45 11 -13 53 -66 93 -117 l73 -94 412 0
c226 0 414 4 417 9 3 4 -10 26 -28 47 -18 21 -61 80 -96 129 -35 50 -69 93
-74 97 -6 4 -115 8 -242 8 -249 0 -244 -1 -244 51 0 35 48 116 72 123 13 3 78
6 146 6 67 0 122 3 122 6 0 12 -130 184 -211 282 l-19 22 -441 0 c-341 0 -439
-3 -433 -12z"/>
<path d="M12120 8643 c0 -6 49 -74 60 -83 4 -3 31 -39 61 -80 29 -41 67 -90
83 -107 l29 -33 326 0 326 1 55 125 c30 69 61 138 68 155 l12 29 -510 0 c-280
0 -510 -3 -510 -7z"/>
<path d="M13403 8622 c15 -15 27 -36 27 -45 0 -17 -105 -260 -265 -612 -103
-229 -205 -464 -205 -475 0 -7 14 -35 31 -62 l31 -48 437 0 436 1 52 117 c29
64 71 160 94 212 23 52 53 120 66 150 14 30 72 161 129 290 57 129 114 255
127 280 l23 45 104 3 c58 2 115 0 128 -3 33 -8 28 -48 -19 -151 -45 -99 -51
-111 -107 -239 -22 -49 -49 -110 -60 -135 -24 -51 -241 -538 -249 -558 -4 -10
99 -12 508 -10 l513 3 92 205 c50 113 124 279 164 370 40 91 83 188 95 215 13
28 44 97 70 154 l47 105 -39 36 c-21 19 -74 68 -117 108 l-80 72 -1030 0
-1030 0 27 -28z"/>
<path d="M11050 8568 c0 -12 -200 -468 -367 -836 -30 -68 -53 -126 -49 -130 3
-4 55 -55 114 -114 l107 -108 572 0 572 0 -32 48 c-18 26 -52 72 -76 102 -24
30 -60 79 -79 108 -27 41 -41 52 -61 52 -15 0 -37 7 -49 16 -20 14 -22 22 -17
55 5 31 2 45 -17 71 -21 31 -180 230 -203 254 -5 7 -17 20 -25 30 -8 11 -60
74 -115 142 -55 68 -135 167 -179 220 -80 99 -96 114 -96 90z"/>
<path d="M4253 8388 c-5 -7 -14 -25 -20 -39 -10 -22 -7 -30 22 -65 l33 -39 25
57 c43 97 43 95 -7 96 -25 1 -47 -3 -53 -10z"/>
<path d="M3117 8264 c-8 -16 -40 -87 -72 -159 -31 -71 -74 -168 -95 -215 -90
-201 -220 -500 -220 -507 0 -2 221 -2 491 -1 l491 3 13 31 c13 31 12 33 -71
136 -91 116 -130 169 -262 363 -48 72 -123 182 -166 245 -43 63 -82 119 -86
124 -5 4 -15 -5 -23 -20z"/>
<path d="M12068 8243 c46 -2 118 -2 160 0 42 1 5 3 -83 3 -88 0 -123 -2 -77
-3z"/>
<path d="M4155 8174 c-52 -115 -65 -146 -65 -155 0 -5 20 -9 45 -9 49 0 54 5
94 108 l20 49 -34 33 -34 33 -26 -59z"/>
<path d="M12490 8152 c0 -9 34 -57 137 -195 60 -80 93 -101 118 -76 13 14 125
256 125 271 0 5 -85 8 -190 8 -104 0 -190 -4 -190 -8z"/>
<path d="M12018 7783 c117 -2 306 -2 420 0 114 1 18 2 -213 2 -231 0 -324 -1
-207 -2z"/>
<path d="M11886 7678 c5 -7 50 -69 101 -137 52 -68 98 -132 104 -142 9 -18 25
-19 247 -19 l238 0 52 118 c28 64 58 134 67 155 l15 37 -415 0 c-330 0 -415
-3 -409 -12z"/>
<path d="M3872 7545 c-18 -41 -32 -78 -32 -83 0 -4 15 -22 33 -40 l32 -31 48
104 c26 58 47 110 47 115 0 6 -22 10 -48 10 l-48 0 -32 -75z"/>
<path d="M12740 7548 c-12 -29 -40 -91 -61 -136 -22 -46 -39 -88 -39 -92 0
-19 -49 -25 -254 -30 l-219 -5 50 -65 c77 -100 407 -603 535 -815 508 -840
832 -1536 1065 -2285 94 -301 149 -572 183 -910 26 -253 24 -435 -10 -655 -24
-163 -41 -221 -82 -290 -61 -101 -148 -145 -378 -191 -120 -23 -165 -27 -405
-31 -236 -5 -291 -3 -437 16 -92 12 -209 30 -260 40 -51 11 -142 27 -203 36
-60 10 -132 26 -160 36 -27 10 -115 36 -195 58 -80 22 -224 69 -320 104 -96
35 -212 76 -258 91 -46 15 -152 58 -235 95 -84 38 -178 78 -210 90 -32 12
-165 75 -295 140 -130 66 -280 140 -333 164 -53 24 -149 78 -215 120 -106 67
-280 167 -290 167 -6 0 -208 116 -319 184 -55 33 -148 94 -207 136 -144 101
-217 150 -459 310 -229 152 -408 283 -547 400 -49 41 -153 125 -233 185 -79
61 -211 164 -294 230 -82 66 -199 158 -260 205 -60 47 -146 120 -190 163 -44
44 -143 128 -220 187 -120 92 -255 223 -926 897 -524 525 -807 816 -849 873
-63 85 -134 169 -227 268 l-50 52 -472 0 c-446 0 -471 -1 -462 -17 13 -25 184
-239 226 -284 18 -20 68 -81 111 -135 103 -132 115 -147 198 -235 39 -41 100
-109 135 -150 80 -93 1727 -1739 1800 -1800 29 -24 94 -82 143 -129 50 -47
122 -110 161 -140 38 -30 104 -83 146 -118 42 -34 132 -108 201 -163 167 -134
358 -292 395 -326 56 -52 222 -175 435 -321 82 -56 373 -258 563 -390 147
-103 262 -173 592 -362 61 -35 131 -78 175 -107 120 -79 159 -101 355 -199
115 -59 251 -129 300 -157 50 -27 153 -76 230 -109 77 -33 226 -97 330 -143
105 -47 255 -107 335 -135 80 -28 181 -64 225 -80 44 -15 124 -40 179 -54 54
-15 106 -30 115 -35 19 -10 270 -71 437 -106 181 -38 414 -64 644 -71 176 -5
227 -3 360 15 328 45 595 139 780 275 73 53 543 523 607 606 92 120 148 228
203 390 104 307 125 667 64 1108 -27 200 -111 570 -174 767 -86 268 -157 468
-215 605 -116 276 -135 321 -135 325 0 2 -53 111 -118 242 -103 207 -171 339
-329 633 -20 36 -67 117 -106 180 -39 63 -84 140 -100 170 -16 30 -35 62 -42
70 -7 8 -21 31 -30 50 -10 19 -61 101 -114 182 l-96 148 -70 0 c-73 0 -115 17
-115 45 0 8 14 44 30 80 l30 66 -42 59 c-23 33 -45 60 -49 60 -3 0 -17 -24
-29 -52z"/>
</g>
</svg>
